<?xml version="1.0" encoding="UTF-8"?>
<svg width="35px" height="34px" viewBox="0 0 35 34" version="1.1" xmlns="http://www.w3.org/2000/svg" xmlns:xlink="http://www.w3.org/1999/xlink">
    <!-- Generator: Sketch 40.3 (33839) - http://www.bohemiancoding.com/sketch -->
    <title>Shape</title>
    <desc>Created with Sketch.</desc>
    <defs></defs>
    <g id="Symbols" stroke="none" stroke-width="1" fill="none" fill-rule="evenodd">
        <g id="RecycleIcon" transform="translate(-4.000000, -5.000000)" fill="#FFFFFF">
            <g id="recycle-Copy-4">
                <path d="M20.3087897,28.1766152 L20.0104582,35.4643144 L19.9706807,35.899992 L11.6173981,35.3256897 C11.1400677,35.2860826 10.6958852,35.0781455 10.2848507,34.7018785 C9.87381614,34.3256114 9.56222545,33.8932343 9.35007859,33.4047472 C9.20422763,33.0482837 9.10809857,32.685219 9.06169145,32.315553 C9.01528433,31.9458872 9.04180268,31.5168107 9.14124652,31.0283236 C9.24069036,30.5398365 9.32024544,30.1767718 9.37991174,29.9391294 C9.43957804,29.701487 9.58211422,29.2790117 9.80752025,28.6717034 C10.0329263,28.0643952 10.1588885,27.7145328 10.1854068,27.6221163 C11.2196228,27.7805446 14.5940838,27.9653775 20.3087897,28.1766152 L20.3087897,28.1766152 Z M12.6118365,16.5717464 L16.1918148,24.0772844 L13.2681659,22.2553596 C12.4328376,23.2059291 11.6936384,24.1597991 11.0505682,25.1169697 C10.4074981,26.0741404 9.92685286,26.8992875 9.60863257,27.592411 C9.29041228,28.2855346 9.0285435,28.9093458 8.82302624,29.4638447 C8.61750897,30.0183435 8.49486156,30.4342177 8.45508403,30.7114671 L8.37552896,31.1273412 L4.59666304,24.0574809 C4.37125701,23.7142197 4.2519244,23.3445538 4.23866522,22.9484832 C4.22540603,22.5524126 4.26518357,22.2421573 4.35799782,22.0177172 L4.51710797,21.6612537 C4.98117921,20.8295054 5.7369524,19.5884842 6.78442752,17.93819 L4,16.2350864 L12.6118365,16.5717464 Z M37.0949099,26.8101716 L33.3558215,33.919639 C33.1967114,34.3025073 32.9547314,34.609462 32.6298815,34.8405032 C32.3050316,35.0715444 32.0166445,35.2068685 31.7647201,35.2464755 L31.4067223,35.3256897 C30.4653206,35.4181061 29.0134405,35.4973203 27.0510821,35.563332 L27.2101922,38.811111 L22.6357756,31.5432154 L26.8323056,24.3743374 L26.971527,27.8003481 C29.2255874,28.0115858 31.1017612,28.0445917 32.6000484,27.8993658 C34.0983355,27.7541399 35.2253657,27.536301 35.9811389,27.2458493 L37.0949099,26.8101716 Z M21.4822271,8.5117095 C20.8590457,9.34345777 19.1022045,12.2149697 16.2117035,17.1262452 L9.90696409,13.422985 L9.5290775,13.1853427 L14.0040503,6.13528585 C14.2692339,5.7260129 14.6670092,5.42895994 15.1973764,5.24412698 C15.7277435,5.05929403 16.2581107,4.99328227 16.7884778,5.04609167 C17.1066981,5.0724964 17.4282332,5.15171052 17.7530831,5.28373404 C18.0779329,5.41575758 18.3563757,5.55438229 18.5884113,5.69960818 C18.8204469,5.84483408 19.0955749,6.06267292 19.4137952,6.35312468 C19.7320155,6.64357647 19.9706807,6.87131707 20.1297908,7.03634648 C20.288901,7.20137591 20.5275662,7.46212238 20.8457865,7.81858593 C21.1640068,8.17504948 21.3761536,8.40609067 21.4822271,8.5117095 L21.4822271,8.5117095 Z M34.5093701,14.5913933 L38.7257889,21.7800749 C38.9644541,22.268562 39.047324,22.7702514 38.9743985,23.2851432 C38.901473,23.800035 38.7191593,24.2885221 38.4274574,24.7506044 C38.255088,25.0146515 38.0363116,25.258895 37.771128,25.4833351 C37.5059445,25.7077751 37.2540201,25.892608 37.0153549,26.0378339 C36.7766896,26.1830598 36.4551545,26.3282857 36.0507496,26.4735116 C35.6463447,26.6187375 35.334754,26.7243563 35.1159775,26.7903681 C34.8972011,26.8563798 34.5557772,26.9487963 34.091706,27.0676175 C33.6276347,27.1864387 33.3226736,27.2656528 33.1768226,27.3052599 C32.7260106,26.3546904 30.9691694,23.4765773 27.9062991,18.6709206 L34.1314835,14.8092322 L34.5093701,14.5913933 Z M31.6652763,10.1157955 L34.4894813,8.47210243 L30.1139524,15.8588193 L21.7805586,15.4627487 L24.7837625,13.7596451 C24.3329505,12.5846356 23.8357313,11.4888402 23.2921049,10.472259 C22.7484786,9.45567778 22.2479446,8.64043244 21.790503,8.026523 C21.3330613,7.41261356 20.9054528,6.88451943 20.5076774,6.44224057 C20.1099021,5.99996173 19.7983114,5.69300701 19.5729053,5.5213764 L19.2347963,5.26393051 L27.2897473,5.28373404 C27.7007819,5.24412698 28.085298,5.31343934 28.4432959,5.49167111 C28.8012937,5.66990288 29.0598477,5.85803642 29.2189578,6.05607173 L29.4377343,6.35312468 C29.9548422,7.15846826 30.6973562,8.41269184 31.6652763,10.1157955 L31.6652763,10.1157955 Z" id="Shape"></path>
            </g>
        </g>
    </g>
</svg>